<svg width="300" height="300" viewBox="0 0 300 300" fill="none" xmlns="http://www.w3.org/2000/svg">
<rect width="300" height="300" fill="#EED6F4"/>
<path d="M139.1 156C139.1 168.002 135.852 178.754 130.733 186.433C125.602 194.129 118.788 198.5 111.6 198.5C104.412 198.5 97.598 194.129 92.467 186.433C87.3477 178.754 84.1001 168.002 84.1001 156C84.1001 143.998 87.3477 133.246 92.467 125.567C97.598 117.871 104.412 113.5 111.6 113.5C118.788 113.5 125.602 117.871 130.733 125.567C135.852 133.246 139.1 143.998 139.1 156Z" stroke="black" stroke-width="5"/>
<path d="M207.5 156C207.5 168.002 204.252 178.754 199.133 186.433C194.002 194.129 187.188 198.5 180 198.5C172.812 198.5 165.998 194.129 160.867 186.433C155.748 178.754 152.5 168.002 152.5 156C152.5 143.998 155.748 133.246 160.867 125.567C165.998 117.871 172.812 113.5 180 113.5C187.188 113.5 194.002 117.871 199.133 125.567C204.252 133.246 207.5 143.998 207.5 156Z" stroke="black" stroke-width="5"/>
<ellipse cx="156.6" cy="219" rx="15" ry="6" fill="black"/>
<circle cx="165.6" cy="158.4" r="9" fill="black"/>
<circle cx="127.2" cy="158.4" r="9" fill="black"/>
<path d="M156.6 105.604C164.3 94.2037 172.44 73.0299 179.4 74.4699C188.1 76.2699 210.3 109.87 216.9 111.07C222.18 112.03 235.5 105.604 235.5 105.604" stroke="black" stroke-width="5"/>
</svg>
