<svg width="300" height="300" viewBox="0 0 300 300" fill="none" xmlns="http://www.w3.org/2000/svg">
<rect width="300" height="300" fill="#D9EAC2"/>
<path d="M134.9 131.4C134.9 147.665 131.598 162.266 126.377 172.708C121.081 183.3 114.227 188.9 107.4 188.9C100.573 188.9 93.7188 183.3 88.4228 172.708C83.2015 162.266 79.8999 147.665 79.8999 131.4C79.8999 115.135 83.2015 100.534 88.4228 90.0916C93.7188 79.4995 100.573 73.9 107.4 73.9C114.227 73.9 121.081 79.4995 126.377 90.0916C131.598 100.534 134.9 115.135 134.9 131.4Z" stroke="black" stroke-width="5"/>
<path d="M214.7 131.4C214.7 147.665 211.398 162.266 206.177 172.708C200.881 183.3 194.027 188.9 187.2 188.9C180.373 188.9 173.519 183.3 168.223 172.708C163.002 162.266 159.7 147.665 159.7 131.4C159.7 115.135 163.002 100.534 168.223 90.0916C173.519 79.4995 180.373 73.9 187.2 73.9C194.027 73.9 200.881 79.4995 206.177 90.0916C211.398 100.534 214.7 115.135 214.7 131.4Z" stroke="black" stroke-width="5"/>
<circle cx="117" cy="144" r="10" fill="black"/>
<circle cx="179" cy="144" r="10" fill="black"/>
<path d="M98 217C99 222.2 103.7 234.52 114.5 242.2C125.3 249.88 142.6 248.2 149.9 246.4" stroke="black" stroke-width="5"/>
</svg>
