<svg width="613" height="172" viewBox="0 0 613 172" fill="none" xmlns="http://www.w3.org/2000/svg">
<rect width="613" height="172" fill="#0D353F"/>
<path d="M183.05 115V55.5H202.6C207.303 55.5 211.61 56.265 215.52 57.795C219.43 59.2683 222.773 61.3367 225.55 64C228.383 66.6067 230.565 69.7233 232.095 73.35C233.682 76.9767 234.475 80.8867 234.475 85.08C234.475 89.4433 233.653 93.4667 232.01 97.15C230.423 100.777 228.213 103.922 225.38 106.585C222.603 109.248 219.345 111.317 215.605 112.79C211.865 114.263 207.87 115 203.62 115H183.05ZM190.785 111.26H200.135C204.782 111.26 208.72 110.495 211.95 108.965C215.237 107.378 217.928 105.338 220.025 102.845C222.122 100.352 223.652 97.575 224.615 94.515C225.578 91.3983 226.06 88.31 226.06 85.25C226.06 81.85 225.493 78.5917 224.36 75.475C223.227 72.3017 221.555 69.525 219.345 67.145C217.192 64.7083 214.5 62.7817 211.27 61.365C208.04 59.9483 204.328 59.24 200.135 59.24H190.785V111.26ZM243.795 72.5H251.02V79.3H251.53C252.55 76.75 253.853 74.8233 255.44 73.52C257.027 72.2167 259.01 71.565 261.39 71.565C261.673 71.565 262.098 71.6217 262.665 71.735C263.288 71.7917 263.94 71.9617 264.62 72.245C265.357 72.4717 266.065 72.8117 266.745 73.265C267.482 73.7183 268.105 74.285 268.615 74.965L265.725 80.235C265.215 79.4983 264.393 78.705 263.26 77.855C262.183 77.005 260.993 76.58 259.69 76.58C258.727 76.58 257.735 76.8067 256.715 77.26C255.695 77.7133 254.76 78.45 253.91 79.47C253.06 80.49 252.352 81.8217 251.785 83.465C251.275 85.0517 251.02 87.0067 251.02 89.33V115H243.795V72.5ZM276.251 72.5H283.476V100.55C283.476 101.117 283.533 102.023 283.646 103.27C283.76 104.46 284.128 105.678 284.751 106.925C285.431 108.172 286.423 109.277 287.726 110.24C289.086 111.147 290.956 111.6 293.336 111.6C294.81 111.6 296.226 111.345 297.586 110.835C298.946 110.325 300.136 109.56 301.156 108.54C302.176 107.463 302.998 106.132 303.621 104.545C304.245 102.958 304.556 101.06 304.556 98.85V72.5H311.781V115H304.556V109.645H304.216L302.856 111.005C300.873 112.988 298.89 114.32 296.906 115C294.98 115.737 293.195 116.077 291.551 116.02C287.811 116.02 284.893 115.397 282.796 114.15C280.756 112.847 279.255 111.345 278.291 109.645C277.328 107.888 276.733 106.132 276.506 104.375C276.336 102.562 276.251 101.145 276.251 100.125V72.5ZM355.986 118.57V108.2H355.646C354.682 110.92 353.011 112.903 350.631 114.15C348.307 115.397 345.559 116.02 342.386 116.02C339.496 116.02 336.861 115.51 334.481 114.49C332.157 113.413 330.146 111.912 328.446 109.985C326.746 108.002 325.414 105.65 324.451 102.93C323.544 100.153 323.091 97.065 323.091 93.665C323.091 90.3217 323.544 87.29 324.451 84.57C325.414 81.85 326.746 79.5267 328.446 77.6C330.146 75.6733 332.186 74.2 334.566 73.18C336.946 72.1033 339.581 71.565 342.471 71.565C346.097 71.565 349.016 72.245 351.226 73.605C353.492 74.9083 354.966 76.75 355.646 79.13H355.986V72.5H363.211V114.235C363.211 117.068 362.927 119.788 362.361 122.395C361.851 125.058 360.859 127.41 359.386 129.45C357.912 131.49 355.844 133.105 353.181 134.295C350.517 135.542 347.032 136.165 342.726 136.165C340.402 136.165 338.334 135.853 336.521 135.23C334.707 134.663 333.149 133.955 331.846 133.105C330.542 132.312 329.466 131.49 328.616 130.64C327.766 129.847 327.142 129.195 326.746 128.685L331.421 124.435C332.951 126.985 334.622 129.025 336.436 130.555C338.306 132.085 340.742 132.85 343.746 132.85C345.446 132.85 347.032 132.595 348.506 132.085C350.036 131.575 351.339 130.753 352.416 129.62C353.549 128.487 354.427 127.013 355.051 125.2C355.674 123.387 355.986 121.177 355.986 118.57ZM355.986 96.895V90.605C355.986 88.6783 355.731 86.8083 355.221 84.995C354.711 83.1817 353.946 81.595 352.926 80.235C351.962 78.8183 350.744 77.7133 349.271 76.92C347.797 76.07 346.126 75.645 344.256 75.645C343.406 75.645 342.216 75.8433 340.686 76.24C339.212 76.58 337.739 77.3733 336.266 78.62C334.849 79.8667 333.602 81.68 332.526 84.06C331.449 86.3833 330.911 89.5283 330.911 93.495C330.911 97.235 331.336 100.295 332.186 102.675C333.092 105.055 334.197 106.897 335.501 108.2C336.861 109.503 338.306 110.41 339.836 110.92C341.422 111.373 342.896 111.6 344.256 111.6C345.786 111.6 347.259 111.288 348.676 110.665C350.092 109.985 351.339 109.022 352.416 107.775C353.492 106.528 354.342 104.998 354.966 103.185C355.646 101.372 355.986 99.275 355.986 96.895ZM381.024 115V55.5H400.574C405.277 55.5 409.584 56.265 413.494 57.795C417.404 59.2683 420.747 61.3367 423.524 64C426.357 66.6067 428.539 69.7233 430.069 73.35C431.655 76.9767 432.449 80.8867 432.449 85.08C432.449 89.4433 431.627 93.4667 429.984 97.15C428.397 100.777 426.187 103.922 423.354 106.585C420.577 109.248 417.319 111.317 413.579 112.79C409.839 114.263 405.844 115 401.594 115H381.024ZM388.759 111.26H398.109C402.755 111.26 406.694 110.495 409.924 108.965C413.21 107.378 415.902 105.338 417.999 102.845C420.095 100.352 421.625 97.575 422.589 94.515C423.552 91.3983 424.034 88.31 424.034 85.25C424.034 81.85 423.467 78.5917 422.334 75.475C421.2 72.3017 419.529 69.525 417.319 67.145C415.165 64.7083 412.474 62.7817 409.244 61.365C406.014 59.9483 402.302 59.24 398.109 59.24H388.759V111.26ZM441.769 72.5H448.994V79.3H449.504C450.524 76.75 451.827 74.8233 453.414 73.52C455 72.2167 456.984 71.565 459.364 71.565C459.647 71.565 460.072 71.6217 460.639 71.735C461.262 71.7917 461.914 71.9617 462.594 72.245C463.33 72.4717 464.039 72.8117 464.719 73.265C465.455 73.7183 466.079 74.285 466.589 74.965L463.699 80.235C463.189 79.4983 462.367 78.705 461.234 77.855C460.157 77.005 458.967 76.58 457.664 76.58C456.7 76.58 455.709 76.8067 454.689 77.26C453.669 77.7133 452.734 78.45 451.884 79.47C451.034 80.49 450.325 81.8217 449.759 83.465C449.249 85.0517 448.994 87.0067 448.994 89.33V115H441.769V72.5ZM489.865 71.565C494.001 71.565 497.203 72.16 499.47 73.35C501.736 74.4833 503.38 75.985 504.4 77.855C505.476 79.725 506.1 81.8783 506.27 84.315C506.44 86.7517 506.525 89.245 506.525 91.795V115H499.64V110.835C497.996 112.422 495.9 113.697 493.35 114.66C490.8 115.567 488.25 116.02 485.7 116.02C483.263 116.02 481.11 115.595 479.24 114.745C477.37 113.895 475.811 112.79 474.565 111.43C473.318 110.07 472.383 108.54 471.76 106.84C471.136 105.14 470.825 103.412 470.825 101.655C470.825 99.8417 471.165 98.0283 471.845 96.215C472.525 94.4017 473.545 92.7867 474.905 91.37C476.265 89.8967 477.936 88.7067 479.92 87.8C481.903 86.8933 484.17 86.44 486.72 86.44C489.27 86.44 491.678 86.95 493.945 87.97C496.268 88.9333 498.166 90.3217 499.64 92.135V88.48C499.64 83.8333 498.931 80.3767 497.515 78.11C496.155 75.8433 493.633 74.71 489.95 74.71C488.363 74.71 486.975 74.9083 485.785 75.305C484.595 75.7017 483.518 76.2683 482.555 77.005C481.648 77.685 480.798 78.5633 480.005 79.64C479.211 80.66 478.418 81.8217 477.625 83.125L473.205 78.705C473.998 77.855 474.82 77.005 475.67 76.155C476.576 75.305 477.653 74.54 478.9 73.86C480.203 73.18 481.733 72.6417 483.49 72.245C485.246 71.7917 487.371 71.565 489.865 71.565ZM499.64 98.17C499.356 97.49 498.931 96.6967 498.365 95.79C497.855 94.8833 497.175 94.005 496.325 93.155C495.475 92.305 494.455 91.5967 493.265 91.03C492.075 90.4067 490.658 90.095 489.015 90.095C487.371 90.095 485.87 90.435 484.51 91.115C483.15 91.7383 481.988 92.5883 481.025 93.665C480.118 94.685 479.41 95.9033 478.9 97.32C478.39 98.7367 478.135 100.21 478.135 101.74C478.135 103.553 478.446 105.14 479.07 106.5C479.75 107.803 480.6 108.937 481.62 109.9C482.64 110.807 483.773 111.487 485.02 111.94C486.266 112.393 487.456 112.62 488.59 112.62C489.666 112.62 490.743 112.422 491.82 112.025C492.953 111.628 494.001 111.09 494.965 110.41C495.985 109.673 496.891 108.823 497.685 107.86C498.478 106.897 499.13 105.848 499.64 104.715V98.17ZM515.028 72.5H522.423L533.473 104.545H533.813L544.948 72.5H546.648L558.718 104.29H559.058L570.618 72.5H575.038L559.568 115H555.573L544.523 86.525H544.183L534.323 115H529.733L515.028 72.5Z" fill="white"/>
<path fill-rule="evenodd" clip-rule="evenodd" d="M91 135.506C116.267 132.998 136 111.68 136 85.7531C136 59.8264 116.267 38.5086 91 36V46.0626C110.732 48.5231 126 65.355 126 85.7531C126 106.151 110.732 122.983 91 125.444V135.506Z" fill="#A634E0"/>
<path fill-rule="evenodd" clip-rule="evenodd" d="M81 36C55.7334 38.5086 36 59.8264 36 85.7531C36 111.68 55.7334 132.998 81 135.506V125.444C61.2684 122.983 46 106.151 46 85.7531C46 65.355 61.2684 48.5231 81 46.0626V36Z" fill="white"/>
</svg>
